<?xml version="1.0"?>
<svg xmlns="http://www.w3.org/2000/svg" xmlns:xlink="http://www.w3.org/1999/xlink" xmlns:svgjs="http://svgjs.com/svgjs" version="1.1" width="40" height="33" x="0" y="0" viewBox="0 0 56 52" style="enable-background:new 0 0 512 512" xml:space="preserve" class=""><g><g xmlns="http://www.w3.org/2000/svg" id="Page-1" fill="none" fill-rule="evenodd"><g id="030---Shorts-and-Tshirts" fill="rgb(0,0,0)" fill-rule="nonzero"><path id="Shape" d="m20.02 4.96c2.7416811-.0021686 4.9667985-2.21834981 4.98-4.96h-9.958c.0131966 2.74087086 2.2370993 4.95673213 4.978 4.96z" fill="#ff7600" data-original="#000000" style="" class=""/><path id="Shape" d="m25 28v3h26v-3c0-.5522847-.4477153-1-1-1h-24c-.5522847 0-1 .4477153-1 1z" fill="#ff7600" data-original="#000000" style="" class=""/><circle id="Oval" cx="25.5" cy="11.5" r="1.5" fill="#ff7600" data-original="#000000" style="" class=""/><circle id="Oval" cx="48.5" cy="44.5" r="1.5" fill="#ff7600" data-original="#000000" style="" class=""/><path id="Shape" d="m51.24 33h-15.853l2.261 6.784c.1747981.5246705-.1088295 1.0917019-.6335 1.2665s-1.0917019-.1088295-1.2665-.6335l-2.468-7.417h-8.52l-4.213 15.168c-.0751085.2700396-.0334384.5592051.1148587.7970509s.3896066.402536.6651413.4539491l12.143 2.281c.4912881.0920725.9751061-.1927524 1.133-.667l2.449-7.345c.1348836-.4103745.5180268-.6877501.95-.6877501s.8151164.2773756.95.6877501l2.448 7.341c.1578939.4742476.6417119.7590725 1.133.667l13.214-2.478zm-2.74 15c-1.9329966 0-3.5-1.5670034-3.5-3.5s1.5670034-3.5 3.5-3.5 3.5 1.5670034 3.5 3.5-1.5670034 3.5-3.5 3.5z" fill="#ff7600" data-original="#000000" style="" class=""/><path id="Shape" d="m21.851 36 1.149-4.138v-3.862c0-1.6568542 1.3431458-3 3-3h5v-13c.0000863-.4043959.2437275-.7689341.6173454-.923678.373618-.1547439.8036603-.0692299 1.0896546.216678l1.534 1.534c.3903851.3897159 1.0226149.3897159 1.413 0l3.221-3.217c.187777-.18756826.2932867-.44209075.2932867-.7075s-.1055097-.51993174-.2932867-.7075l-8.192-8.195h-3.683c0 3.85467141-3.1248286 6.9795-6.9795 6.9795s-6.9795-3.12482859-6.9795-6.9795h-3.731l-8.187 8.19c-.39038194.39049985-.39038194 1.02350015 0 1.414l3.218 3.222c.39038508.3897159 1.02261492.3897159 1.413 0l1.539-1.534c.28612294-.2860368.71640792-.3714873 1.09011669-.2164868.37370876.1550004.61720162.5199089.61688331.9244868v23c0 .5522847.44771525 1 1 1zm3.649-28c1.9329966 0 3.5 1.56700338 3.5 3.5 0 1.9329966-1.5670034 3.5-3.5 3.5s-3.5-1.5670034-3.5-3.5c0-1.93299662 1.5670034-3.5 3.5-3.5z" fill="#ff7600" data-original="#000000" style="" class=""/></g></g></g></svg>
